<svg xmlns="http://www.w3.org/2000/svg" viewBox="0 0 296.04 75">
    <defs>
        <style>.cls-1{fill:#e94f39;}.cls-2,.cls-3{fill:#fff;}.cls-2{opacity:0.65;}.cls-4{fill:#1d1d1b;}</style>
    </defs>
    <rect class="cls-1" width="75" height="75"/>
    <rect class="cls-1" x="127.23" y="22" width="4.18" height="3.77"/>
    <rect class="cls-2" x="32.61" y="24.42" width="9.79" height="38.18"/>
    <rect class="cls-3" x="18.65" y="39.04" width="9.79" height="23.56"/>
    <rect class="cls-2" x="46.57" y="12.4" width="9.79" height="50.2"/>
    <path class="cls-4" d="M555.49,542.14a7,7,0,0,1,2.35,5.37,7.39,7.39,0,0,1-2.22,5.43c-1.48,1.48-3.75,2.23-6.81,2.23h-4.63v10.35H540V540h8.82A9.56,9.56,0,0,1,555.49,542.14Zm-11.31,9.76h4.63a4.93,4.93,0,0,0,3.56-1.14,4.87,4.87,0,0,0,0-6.36,4.93,4.93,0,0,0-3.56-1.14h-4.63Z" transform="translate(-448.7 -516.64)"/>
    <path class="cls-4" d="M566,545.28v3.53A6.4,6.4,0,0,1,572.1,545v4.34H571a5.08,5.08,0,0,0-3.73,1.25c-.84.83-1.27,2.27-1.27,4.33v10.65h-4.18V545.28Z" transform="translate(-448.7 -516.64)"/>
    <rect class="cls-4" x="127.25" y="28.64" width="4.19" height="20.24"/>
    <path class="cls-4" d="M587,563a11.77,11.77,0,0,1,0-15.17,9.49,9.49,0,0,1,7.14-2.87,10.11,10.11,0,0,1,6.08,1.75,8.58,8.58,0,0,1,3.25,5H599a4.6,4.6,0,0,0-4.81-3.19,5.1,5.1,0,0,0-4.1,1.82,9.3,9.3,0,0,0,0,10.19,5.05,5.05,0,0,0,4.1,1.84,4.65,4.65,0,0,0,4.81-3.2h4.52a9.08,9.08,0,0,1-3.31,4.91,9.74,9.74,0,0,1-6,1.81A9.47,9.47,0,0,1,587,563Z" transform="translate(-448.7 -516.64)"/>
    <path class="cls-4" d="M616.21,565.85a9.47,9.47,0,0,1-7.16-2.86,10.51,10.51,0,0,1-2.76-7.61,10.37,10.37,0,0,1,2.79-7.58,9.91,9.91,0,0,1,17.16,7,12.39,12.39,0,0,1-.15,2h-15.5a5.79,5.79,0,0,0,1.71,4,5.45,5.45,0,0,0,3.91,1.49A4.92,4.92,0,0,0,621,559.5h4.52a9.11,9.11,0,0,1-3.34,4.57A9.85,9.85,0,0,1,616.21,565.85Zm4-15.88a5.58,5.58,0,0,0-3.93-1.49,5.4,5.4,0,0,0-3.87,1.49,6,6,0,0,0-1.78,4h11.24A5.28,5.28,0,0,0,620.21,550Z" transform="translate(-448.7 -516.64)"/>
    <path class="cls-4"
          d="M638.29,543.08a4.66,4.66,0,0,0-3,1,3.34,3.34,0,0,0-1.18,2.77,3.14,3.14,0,0,0,1.4,2.77,9.61,9.61,0,0,0,3.38,1.4c1.32.29,2.64.63,4,1a7.08,7.08,0,0,1,3.38,2.11,6.29,6.29,0,0,1,1.4,4.37,6.8,6.8,0,0,1-2.39,5.07,9,9,0,0,1-6.39,2.24,10.53,10.53,0,0,1-6.5-1.87,6.11,6.11,0,0,1-2.5-5.18h4.48a4,4,0,0,0,1.25,2.68,4.69,4.69,0,0,0,3.23,1,4.87,4.87,0,0,0,3.36-1.1,3.66,3.66,0,0,0,.48-5,4.63,4.63,0,0,0-1.94-1.27,25.21,25.21,0,0,0-2.63-.75c-1-.22-1.92-.48-2.88-.77a12.46,12.46,0,0,1-2.65-1.14,5.26,5.26,0,0,1-2-2,7.34,7.34,0,0,1,1.66-8.67,9.3,9.3,0,0,1,6.24-2,9.82,9.82,0,0,1,6.14,1.77,6.72,6.72,0,0,1,2.55,5.1h-4.63a3.68,3.68,0,0,0-1.25-2.46A4.26,4.26,0,0,0,638.29,543.08Z"
          transform="translate(-448.7 -516.64)"/>
    <path class="cls-4" d="M656.72,538.34v10.14a6.92,6.92,0,0,1,6.47-3.53,7.54,7.54,0,0,1,5.64,2.28,8.72,8.72,0,0,1,2.22,6.35v11.94H666.9V554.21a5.87,5.87,0,0,0-1.36-4.17,4.83,4.83,0,0,0-3.71-1.45A4.89,4.89,0,0,0,658.1,550a5.83,5.83,0,0,0-1.38,4.17v11.31h-4.18V538.34Z" transform="translate(-448.7 -516.64)"/>
    <path class="cls-4" d="M677.74,562.9a10.66,10.66,0,0,1-2.76-7.57,10.41,10.41,0,0,1,2.74-7.49,9,9,0,0,1,6.81-2.89,8,8,0,0,1,4.21,1.09,7.65,7.65,0,0,1,2.81,2.84v-3.6h4.22v20.24h-4.22v-3.78a8,8,0,0,1-2.83,3,7.75,7.75,0,0,1-4.19,1.12A8.9,8.9,0,0,1,677.74,562.9Zm12-2.54a6.8,6.8,0,0,0,1.82-5,6.72,6.72,0,0,0-1.82-5,5.85,5.85,0,0,0-4.32-1.84,5.92,5.92,0,0,0-4.31,1.8,6.58,6.58,0,0,0-1.82,4.92,6.93,6.93,0,0,0,1.82,5,5.9,5.9,0,0,0,8.63,0Z" transform="translate(-448.7 -516.64)"/>
    <path class="cls-4" d="M712.52,545a9,9,0,0,1,6.8,2.89,10.48,10.48,0,0,1,2.72,7.49,10.73,10.73,0,0,1-2.74,7.57,8.88,8.88,0,0,1-6.78,3,7.75,7.75,0,0,1-4.19-1.12,8.21,8.21,0,0,1-2.86-3v13.41h-4.19V545.28h4.19v3.6a7.84,7.84,0,0,1,2.85-2.84A8,8,0,0,1,712.52,545Zm3.42,15.38a6.94,6.94,0,0,0,1.83-5,6.61,6.61,0,0,0-1.81-4.92,6,6,0,0,0-4.34-1.8,5.85,5.85,0,0,0-4.33,1.84,6.72,6.72,0,0,0-1.82,5,6.8,6.8,0,0,0,1.82,5,5.93,5.93,0,0,0,8.65,0Z" transform="translate(-448.7 -516.64)"/>
    <path class="cls-4" d="M734.71,565.85a9.51,9.51,0,0,1-7.17-2.86,10.55,10.55,0,0,1-2.75-7.61,10.37,10.37,0,0,1,2.79-7.58A9.66,9.66,0,0,1,734.8,545a9.77,9.77,0,0,1,7.18,2.74,9.61,9.61,0,0,1,2.76,7.14,12.39,12.39,0,0,1-.15,2h-15.5a5.74,5.74,0,0,0,1.71,4,5.45,5.45,0,0,0,3.91,1.49,4.92,4.92,0,0,0,4.81-2.83H744a9.16,9.16,0,0,1-3.34,4.57A9.85,9.85,0,0,1,734.71,565.85Zm4-15.88a5.61,5.61,0,0,0-3.93-1.49,5.4,5.4,0,0,0-3.87,1.49,6,6,0,0,0-1.79,4h11.24A5.23,5.23,0,0,0,738.71,550Z" transform="translate(-448.7 -516.64)"/>
</svg>
